#!OML:ASF F:\VICON\USERDATA\INSTALL\rory3\rory3.ASF
:FULLY-SPECIFIED
:DEGREES
1783
root 1.6787 16.649 0.165428 3.45777 -4.58548 12.9774
lowerback 6.05404 -1.28387 13.39
upperback -1.05719 0.0180995 16.4573
thorax -4.66064 -0.0979227 10.5539
lowerneck -10.9056 -8.26593 -5.67535
upperneck 29.5437 -20.2232 26.6235
head 16.5913 -6.37648 9.01134
rclavicle 7.95139e-016 -1.90833e-014
rhumerus -319.849 -50.1839 -443.505
rradius 111.721
rwrist -59.0355
rhand -52.7648 -15.7641
rfingers 7.12502
rthumb -25.2404 -44.1147
lclavicle 7.95139e-016 -1.90833e-014
lhumerus 261.607 -60.8508 -210.795
lradius 90.753
lwrist -16.4991
lhand -24.6435 2.13237
lfingers 7.12502
lthumb 1.85585 32.104
rfemur -21.0508 6.62989 -4.1455
rtibia 41.2254
rfoot -25.1313 -3.66253
rtoes -21.9439
lfemur -16.006 -1.5963 -37.3764
ltibia 31.2199
lfoot -18.0716 -0.588896
ltoes -5.99019
1784
root 1.67883 16.6458 0.166274 3.39282 -4.61266 13.0927
lowerback 6.10229 -1.29798 13.3104
upperback -1.01494 -0.0070866 16.389
thorax -4.638 -0.109074 10.5163
lowerneck -10.9137 -8.2619 -5.59502
upperneck 29.5448 -20.2532 26.6605
head 16.602 -6.37561 9.00901
rclavicle -5.56597e-015 3.18055e-014
rhumerus -319.869 -50.2335 -443.568
rradius 111.737
rwrist -59.1503
rhand -52.8355 -15.6441
rfingers 7.12502
rthumb -25.3082 -43.9851
lclavicle -5.56597e-015 3.18055e-014
lhumerus 261.673 -60.9365 -210.921
lradius 90.8291
lwrist -16.4172
lhand -24.2387 2.02852
lfingers 7.12502
lthumb 2.24684 31.9964
rfemur -21.0705 6.56486 -4.27547
rtibia 41.285
rfoot -25.248 -3.68229
rtoes -21.8107
lfemur -15.933 -1.5659 -37.5055
ltibia 31.1974
lfoot -18.1211 -0.544073
ltoes -6.27142
1785
root 1.67768 16.6447 0.165538 3.37116 -4.64722 13.1972
lowerback 6.13918 -1.29768 13.2065
upperback -0.991318 -0.013816 16.3224
thorax -4.63089 -0.110778 10.4935
lowerneck -10.8674 -8.25951 -5.46943
upperneck 29.5215 -20.2765 26.6803
head 16.5732 -6.37274 8.98692
rclavicle -3.4191e-014 1.59028e-014
rhumerus -319.913 -50.2791 -443.598
rradius 111.692
rwrist -59.2088
rhand -52.8356 -15.2351
rfingers 7.12502
rthumb -25.3082 -43.5761
lclavicle -3.4191e-014 1.59028e-014
lhumerus 261.542 -61.0148 -210.852
lradius 90.8642
lwrist -16.5013
lhand -24.085 2.1325
lfingers 7.12502
lthumb 2.39531 32.0988
rfemur -21.1543 6.50921 -4.38917
rtibia 41.3317
rfoot -25.4617 -3.72993
rtoes -21.6805
lfemur -15.9205 -1.55412 -37.6108
ltibia 31.1837
lfoot -18.1599 -0.541237
ltoes -6.1738
1786
root 1.6775 16.6444 0.165178 3.36394 -4.67463 13.1541
lowerback 6.16584 -1.285 13.2601
upperback -0.967762 0.00766813 16.3078
thorax -4.62214 -0.101797 10.4429
lowerneck -10.806 -8.2802 -5.39173
upperneck 29.4782 -20.312 26.6935
head 16.5372 -6.38314 8.96562
rclavicle 1.35174e-014 -1.59028e-014
rhumerus -319.899 -50.3425 -443.629
rradius 111.653
rwrist -59.2111
rhand -52.8143 -14.8391
rfingers 7.12502
rthumb -25.2879 -43.1829
lclavicle 1.35174e-014 -1.59028e-014
lhumerus 261.325 -61.0421 -210.612
lradius 90.8253
lwrist -16.4426
lhand -24.3458 2.21587
lfingers 7.12502
lthumb 2.14343 32.1848
rfemur -21.1891 6.48524 -4.34068
rtibia 41.3589
rfoot -25.5977 -3.69888
rtoes -22.2185
lfemur -15.93 -1.56015 -37.5606
ltibia 31.2009
lfoot -18.137 -0.581587
ltoes -5.47309
1787
root 1.67648 16.6433 0.164812 3.35713 -4.71041 13.1466
lowerback 6.17778 -1.29865 13.2111
upperback -0.927363 -0.0196968 16.3368
thorax -4.58192 -0.11303 10.5068
lowerneck -10.7521 -8.26803 -5.44224
upperneck 29.4446 -20.282 26.7339
head 16.5125 -6.3808 8.99943
rclavicle -1.66979e-014 6.99722e-014
rhumerus -319.819 -50.2715 -443.702
rradius 111.651
rwrist -59.1885
rhand -52.7997 -15.0536
rfingers 7.12502
rthumb -25.2738 -43.3994
lclavicle -1.66979e-014 6.99722e-014
lhumerus 261.476 -60.9411 -210.69
lradius 90.7836
lwrist -16.3969
lhand -24.3868 2.17313
lfingers 7.12502
lthumb 2.10378 32.1425
rfemur -21.2259 6.47169 -4.33264
rtibia 41.3896
rfoot -25.5985 -3.67363
rtoes -22.8249
lfemur -15.9517 -1.56214 -37.5471
ltibia 31.2353
lfoot -18.1199 -0.668012
ltoes -4.63536
1788
root 1.67485 16.6415 0.164503 3.38579 -4.70045 13.1064
lowerback 6.1566 -1.33221 13.1652
upperback -0.885776 -0.0801036 16.3964
thorax -4.51871 -0.139801 10.6085
lowerneck -10.7879 -8.23839 -5.50182
upperneck 29.4496 -20.2293 26.7443
head 16.5194 -6.36429 9.02733
rclavicle -1.03368e-014 -3.81667e-014
rhumerus -319.686 -50.1582 -443.786
rradius 111.687
rwrist -59.1835
rhand -52.8014 -15.5971
rfingers 7.12502
rthumb -25.2755 -43.9427
lclavicle -1.03368e-014 -3.81667e-014
lhumerus 261.771 -60.8783 -210.933
lradius 90.7889
lwrist -16.4077
lhand -24.3021 2.14376
lfingers 7.12502
lthumb 2.18561 32.1123
rfemur -21.2615 6.42742 -4.2838
rtibia 41.4092
rfoot -25.5898 -3.64542
rtoes -22.7546
lfemur -16.0081 -1.57735 -37.5054
ltibia 31.3023
lfoot -18.1388 -0.588437
ltoes -5.16133
1789
root 1.67392 16.6394 0.163956 3.42211 -4.71792 13.0856
lowerback 6.14133 -1.3449 13.1442
upperback -0.85718 -0.108789 16.4055
thorax -4.47552 -0.152922 10.6317
lowerneck -10.7519 -8.21456 -5.51806
upperneck 29.4234 -20.1973 26.7959
head 16.5014 -6.35442 9.06147
rclavicle -3.97569e-015 -3.49861e-014
rhumerus -319.677 -50.1318 -443.772
rradius 111.687
rwrist -59.2126
rhand -52.7564 -15.8008
rfingers 7.12502
rthumb -25.2324 -44.1525
lclavicle -3.97569e-015 -3.49861e-014
lhumerus 261.812 -60.8707 -210.993
lradius 90.7915
lwrist -16.4433
lhand -24.3821 2.14366
lfingers 7.12502
lthumb 2.10832 32.113
rfemur -21.3273 6.39587 -4.26822
rtibia 41.4351
rfoot -25.6014 -3.56717
rtoes -22.6168
lfemur -16.0721 -1.55832 -37.4832
ltibia 31.3543
lfoot -18.184 -0.493762
ltoes -5.73118
1790
root 1.67396 16.639 0.163265 3.41945 -4.74438 13.0312
lowerback 6.16943 -1.37469 13.1744
upperback -0.843653 -0.142194 16.4113
thorax -4.47421 -0.170276 10.6261
lowerneck -10.6024 -8.18866 -5.52572
upperneck 29.4206 -20.1565 26.8194
head 16.4555 -6.34892 9.08731
rclavicle -1.51076e-014 1.33583e-013
rhumerus -319.846 -50.1049 -443.662
rradius 111.673
rwrist -59.2703
rhand -52.7624 -15.8741
rfingers 7.12502
rthumb -25.2381 -44.225
lclavicle -1.51076e-014 1.33583e-013
lhumerus 261.766 -60.8027 -210.963
lradius 90.8071
lwrist -16.4302
lhand -24.5359 2.07205
lfingers 7.12502
lthumb 1.95984 32.0428
rfemur -21.3485 6.36613 -4.20815
rtibia 41.451
rfoot -25.579 -3.58939
rtoes -22.8098
lfemur -16.0912 -1.56052 -37.4259
ltibia 31.3917
lfoot -18.2351 -0.465805
ltoes -5.84261
1791
root 1.67327 16.6388 0.163289 3.3768 -4.74333 13.0489
lowerback 6.20992 -1.42219 13.1152
upperback -0.852489 -0.197586 16.4154
thorax -4.5022 -0.196417 10.6731
lowerneck -10.3736 -8.16286 -5.55936
upperneck 29.4278 -20.0987 26.8154
head 16.3858 -6.34685 9.11058
rclavicle 6.36111e-015 9.85972e-014
rhumerus -320.096 -50.047 -443.491
rradius 111.685
rwrist -59.3205
rhand -52.7983 -15.6129
rfingers 7.12502
rthumb -25.2725 -43.959
lclavicle 6.36111e-015 9.85972e-014
lhumerus 261.743 -60.6642 -210.924
lradius 90.811
lwrist -16.3709
lhand -24.6471 1.97309
lfingers 7.12502
lthumb 1.85238 31.9448
rfemur -21.3146 6.33444 -4.22125
rtibia 41.4718
rfoot -25.5771 -3.56566
rtoes -22.9219
lfemur -16.0551 -1.58919 -37.4443
ltibia 31.4102
lfoot -18.248 -0.426508
ltoes -6.02777
1792
root 1.6718 16.6385 0.162126 3.33086 -4.74573 13.0999
lowerback 6.27611 -1.45783 13.004
upperback -0.847912 -0.238037 16.4168
thorax -4.53084 -0.213752 10.7448
lowerneck -10.1988 -8.12704 -5.62736
upperneck 29.4175 -20.0514 26.9028
head 16.3504 -6.34343 9.18409
rclavicle -2.06736e-014 -2.8625e-014
rhumerus -320.265 -49.9822 -443.356
rradius 111.663
rwrist -59.3249
rhand -52.8956 -15.2627
rfingers 7.12502
rthumb -25.3658 -43.5955
lclavicle -2.06736e-014 -2.8625e-014
lhumerus 261.693 -60.613 -210.843
lradius 90.8372
lwrist -16.3198
lhand -24.678 1.9675
lfingers 7.12502
lthumb 1.82254 31.9395
rfemur -21.2896 6.29895 -4.27347
rtibia 41.497
rfoot -25.565 -3.51776
rtoes -22.7775
lfemur -16.0187 -1.56218 -37.494
ltibia 31.4146
lfoot -18.2189 -0.430306
ltoes -5.80063
1793
root 1.67083 16.6379 0.160809 3.32201 -4.7228 13.1199
lowerback 6.31139 -1.49251 12.9549
upperback -0.829457 -0.283089 16.4136
thorax -4.52626 -0.234618 10.7741
lowerneck -10.1579 -8.09765 -5.64334
upperneck 29.4326 -20.0408 26.986
head 16.3671 -6.33781 9.23838
rclavicle -2.46493e-014 3.18055e-014
rhumerus -320.376 -49.9382 -443.256
rradius 111.608
rwrist -59.3603
rhand -52.9657 -15.0284
rfingers 7.12502
rthumb -25.4329 -43.3517
lclavicle -2.46493e-014 3.18055e-014
lhumerus 261.663 -60.618 -210.772
lradius 90.8573
lwrist -16.2486
lhand -24.6831 2.04469
lfingers 7.12502
lthumb 1.81761 32.0167
rfemur -21.2692 6.25239 -4.29275
rtibia 41.5307
rfoot -25.4987 -3.46652
rtoes -22.6707
lfemur -16.006 -1.58987 -37.5105
ltibia 31.4154
lfoot -18.1716 -0.509499
ltoes -5.18819
